<svg xmlns="http://www.w3.org/2000/svg" xmlns:xlink="http://www.w3.org/1999/xlink" width="2080" height="97" viewBox="0 0 2080 97">
  <defs>
    <clipPath id="clip-path">
      <rect id="Rect치ngulo_9224" data-name="Rect치ngulo 9224" width="2080" height="97" transform="translate(-3293 -15559)" fill="#fff"/>
    </clipPath>
  </defs>
  <g id="banner" transform="translate(3293 15559)" clip-path="url(#clip-path)">
    <g id="Grupo_26369" data-name="Grupo 26369" transform="translate(-3331.545 -15961)">
      <rect id="Rect치ngulo_8" data-name="Rect치ngulo 8" width="2080" height="97" transform="translate(38.545 402)" fill="#fff"/>
      <path id="Trazado_6840" data-name="Trazado 6840" d="M0,0,476.819-.316,602,97H0Z" transform="translate(38.545 402.316)" fill="#01589b"/>
      <path id="Trazado_6841" data-name="Trazado 6841" d="M602,0,125.181-.316,0,97H602Z" transform="translate(1516.545 402.316)" fill="#01589b"/>
      <path id="Trazado_6839" data-name="Trazado 6839" d="M2052.953,429.369a36.682,36.682,0,0,1-12.582-10.59c5.057-11.644,12.375-23.132,19.526-33.816a.488.488,0,0,1,.424-.216,1,1,0,0,1,.747.418.75.75,0,0,1,.147.675c-.112.364-.224.724-.341,1.095v.017c-3.595,11.642-8.06,26.14-.887,31.192a4.537,4.537,0,0,0,2.662.871c2.365,0,5.175-1.841,8.592-5.638a142.525,142.525,0,0,0,9.455-12.452c2.523-3.585,5.141-7.283,7.659-10.378a.383.383,0,0,1,.3-.139.746.746,0,0,1,.586.368.5.5,0,0,1,.055.5c-3.2,6.493-7.228,15.564-9.389,20.8-.318.83-.609,1.631-.865,2.378v0a32.668,32.668,0,0,0-.96,3.345,15.877,15.877,0,0,0,3.628,13.29c.033.034.067.066.1.1a36.51,36.51,0,0,1-28.848-1.826Zm179.952,1.1a26.3,26.3,0,0,1-4.067-.819,10.651,10.651,0,0,1-3.247-1.494,2.786,2.786,0,0,1-1.316-2.34,5.1,5.1,0,0,1,.2-1.286,5.408,5.408,0,0,1,.644-1.463,4.8,4.8,0,0,1,1.053-1.2,2.3,2.3,0,0,1,1.494-.5,2.458,2.458,0,0,1,1.287.351q.584.351,1.375.731a13.577,13.577,0,0,0,1.959.731,11.122,11.122,0,0,0,3.1.351,8.86,8.86,0,0,0,2.6-.351,1.5,1.5,0,0,0,1.142-1.577,2.094,2.094,0,0,0-.936-1.784,11.546,11.546,0,0,0-2.369-1.258q-1.433-.585-3.1-1.258a12.943,12.943,0,0,1-3.1-1.784,8.9,8.9,0,0,1-2.369-2.837,9.356,9.356,0,0,1-.936-4.475,9.965,9.965,0,0,1,1.2-5.062,10.08,10.08,0,0,1,3.1-3.364,12.716,12.716,0,0,1,4.3-1.843,21.175,21.175,0,0,1,4.8-.556q4.973,0,7.313,1.96a6.237,6.237,0,0,1,2.34,5,4.824,4.824,0,0,1-1.608,3.92,7.061,7.061,0,0,1-4.651,1.345,2.393,2.393,0,0,1-1.112-.175.687.687,0,0,1-.29-.644,9.429,9.429,0,0,0-.088-1.2,3.817,3.817,0,0,0-.409-1.286,2.632,2.632,0,0,0-1-1.024,3.674,3.674,0,0,0-1.9-.409,4.11,4.11,0,0,0-2.633.788,2.413,2.413,0,0,0-1,1.96,2.292,2.292,0,0,0,1.023,1.96,13.061,13.061,0,0,0,2.573,1.375q1.551.643,3.364,1.316a14.25,14.25,0,0,1,3.364,1.784,9.482,9.482,0,0,1,2.573,2.78,8.114,8.114,0,0,1,1.024,4.3,8.88,8.88,0,0,1-2.984,6.9q-2.984,2.691-8.951,2.691a31.224,31.224,0,0,1-3.77-.264Zm-27.945-.38a12.149,12.149,0,0,1-4.564-2.223,11.834,11.834,0,0,1-3.305-4.212,15.023,15.023,0,0,1-1.287-6.611,31.778,31.778,0,0,1,.234-3.51,23.011,23.011,0,0,1,.907-4.212,22.3,22.3,0,0,1,1.872-4.3,14.607,14.607,0,0,1,3.13-3.832,15.3,15.3,0,0,1,4.68-2.75,18.321,18.321,0,0,1,6.552-1.053,16.421,16.421,0,0,1,5.148.7,9.145,9.145,0,0,1,3.393,1.9,7.164,7.164,0,0,1,1.872,2.78,9.682,9.682,0,0,1,.585,3.393,8.981,8.981,0,0,1-1.082,4.564,10.051,10.051,0,0,1-2.808,3.13,13.948,13.948,0,0,1-3.832,1.96,31.113,31.113,0,0,1-4.153,1.082,28.824,28.824,0,0,1-3.774.468q-1.726.088-2.662.087a7.664,7.664,0,0,0,.322,2.194,5.639,5.639,0,0,0,.966,1.9,4.9,4.9,0,0,0,1.7,1.346,5.716,5.716,0,0,0,2.573.527,4.706,4.706,0,0,0,2.369-.5,5.349,5.349,0,0,0,1.375-1.111q.526-.614.906-1.112a1.221,1.221,0,0,1,1.024-.5,6.176,6.176,0,0,1,1.024.146,4.565,4.565,0,0,1,1.493.614,4.668,4.668,0,0,1,1.346,1.286,3.538,3.538,0,0,1,.585,2.106,4.348,4.348,0,0,1-1.053,2.925,7.756,7.756,0,0,1-2.72,1.989,15.037,15.037,0,0,1-3.715,1.112,23.543,23.543,0,0,1-3.979.351,20.8,20.8,0,0,1-5.119-.643ZM2209,405.9a6.165,6.165,0,0,0-1.521,1.843,9.718,9.718,0,0,0-.936,2.457q-.322,1.346-.5,2.572a13.234,13.234,0,0,0,5.879-1.228,3.637,3.637,0,0,0,2.252-3.335,3.333,3.333,0,0,0-.731-2.106,2.682,2.682,0,0,0-2.253-.936,3.386,3.386,0,0,0-2.193.732Zm-25.25,22.9q-1.579-1.931-1.579-6.377,0-.7.087-1.755t.234-2.72q.145-1.667.38-4.124t.5-5.967q.263-3.51.585-8.249t.673-11a2.979,2.979,0,0,1,.29-1.521,1.527,1.527,0,0,1,.936-.175h2.282a8.953,8.953,0,0,1,2.925.41,4.876,4.876,0,0,1,1.872,1.112,3.978,3.978,0,0,1,1,1.609,6.148,6.148,0,0,1,.29,1.9q0,1.17-.146,3.364t-.38,4.943q-.234,2.75-.468,5.733t-.466,5.7q-.234,2.72-.38,4.885t-.146,3.278a3.318,3.318,0,0,0,.556,2.165,3.209,3.209,0,0,0,1.2.906,5.432,5.432,0,0,0,1.2.351q.556.088.556.38a11.2,11.2,0,0,1-.291,2.545,6.1,6.1,0,0,1-1.053,2.282,5.331,5.331,0,0,1-2.077,1.638,7.974,7.974,0,0,1-3.364.614q-3.63,0-5.208-1.933Zm-8.678,1.931a9.535,9.535,0,0,1-2.954-.38,4.376,4.376,0,0,1-1.814-1.082,3.82,3.82,0,0,1-.936-1.726,9.557,9.557,0,0,1-.263-2.369q0-.878.088-2.486t.322-4.446q.234-2.837.555-7.2t.788-10.793a2.98,2.98,0,0,1,.29-1.521,1.527,1.527,0,0,1,.939-.178h2.282a10.275,10.275,0,0,1,2.954.351,4.136,4.136,0,0,1,1.814,1.053,3.813,3.813,0,0,1,.936,1.7,8.693,8.693,0,0,1,.263,2.223q0,.877-.117,2.633t-.322,4.768q-.2,3.012-.556,7.488t-.878,10.793a1.546,1.546,0,0,1-.29.936,1.471,1.471,0,0,1-1,.234ZM2113,429.591a10.632,10.632,0,0,1-4.241-3.13,11.843,11.843,0,0,1-2.223-4.651,24.248,24.248,0,0,1-.644-5.7,28.017,28.017,0,0,1,.848-6.874,16.031,16.031,0,0,1,2.9-6,14.8,14.8,0,0,1,5.411-4.244,19.415,19.415,0,0,1,8.4-1.609q7.371,0,10.559,3.6t3.188,10.091a33.885,33.885,0,0,1-.263,4.007,21.671,21.671,0,0,1-1,4.357,20.678,20.678,0,0,1-1.989,4.212,14.42,14.42,0,0,1-3.188,3.627,14.943,14.943,0,0,1-4.651,2.516,19.719,19.719,0,0,1-6.406.936,17.035,17.035,0,0,1-6.7-1.138Zm5.908-23.284a7.335,7.335,0,0,0-1.989,2.75,12.409,12.409,0,0,0-.878,3.393,27.084,27.084,0,0,0-.2,3.013q0,3.861,1.228,5.674a3.988,3.988,0,0,0,3.51,1.814,4.612,4.612,0,0,0,3.364-1.286,8.962,8.962,0,0,0,2.048-3.1,15.606,15.606,0,0,0,1-3.8,26.2,26.2,0,0,0,.264-3.335,8.379,8.379,0,0,0-1.082-4.592,4.088,4.088,0,0,0-3.715-1.667,5.217,5.217,0,0,0-3.542,1.139Zm31.171,24.359a3.847,3.847,0,0,1-3.334-1.58,6.683,6.683,0,0,1-.878-1.609q-.351-.907-.643-1.9-1.7-5.85-2.955-10.033t-2.135-6.991q-.878-2.808-1.4-4.475t-.819-2.573q-.293-.907-.41-1.229a1.626,1.626,0,0,1-.117-.439,1.574,1.574,0,0,1,.585-.878,1.951,1.951,0,0,1,1.346-.468,43.831,43.831,0,0,1,4.592.2,11.44,11.44,0,0,1,3.159.731,4.393,4.393,0,0,1,1.93,1.463,6.178,6.178,0,0,1,.966,2.457l.234,1.638q.175,1.229.38,2.954t.5,3.8q.29,2.077.555,4.154t.526,4.007q.263,1.931.5,3.335.7-2.457,1.316-4.855t1.229-5.119q.614-2.72,1.345-5.967t1.726-7.405a1.8,1.8,0,0,1,.527-1.082,2.861,2.861,0,0,1,1.521-.263q.877,0,2.34.059a14.119,14.119,0,0,1,2.866.409,7.448,7.448,0,0,1,2.428,1.053,2.218,2.218,0,0,1,1.024,1.931,12.319,12.319,0,0,1-.7,3.218q-.7,2.223-1.814,5.062t-2.486,5.938q-1.375,3.1-2.662,5.85t-2.4,4.826q-1.112,2.077-1.638,2.9a2,2,0,0,1-.819.76,4.1,4.1,0,0,1-1.17.117Zm-66.311-.757c.7-2.6,1.486-5.548,2.535-8.417.01-.024.023-.056.038-.1s.029-.073.045-.111a282.263,282.263,0,0,1,12.175-31.466c.4-.876.854-1.757,1.3-2.614a24.645,24.645,0,0,0,2.466-6.006A36.419,36.419,0,0,1,2085.2,429.77q-.788.377-1.594.717Zm-48.442-20.376a36.41,36.41,0,0,1,59.058-39.163c-2.267,3.409-5.058,7.185-7.512,10.517l-.373.5c-2.3,3.058-4.706,6.127-7.022,9.092-4.61,5.9-9.384,12.006-13.849,18.505a.556.556,0,0,1-.469.242,1.1,1.1,0,0,1-.815-.437.894.894,0,0,1-.212-.747c2.228-10.483,4.348-18.555,6.4-26.353.457-1.725.927-3.506,1.39-5.293a11.571,11.571,0,0,0,.257-7.717,12.744,12.744,0,0,0-2.792-4.626,4.569,4.569,0,0,0-3.132-1.4,2.564,2.564,0,0,0-.849.135,1.4,1.4,0,0,0-.73.542c-1.558,2.34-3.283,4.8-5.283,7.513-5.2,6.761-14.865,19.8-21.161,31.222l-.357.692a22.972,22.972,0,0,0-2.429,6.038c-.049.242-.083.493-.116.737Zm135.592-17.882a4.448,4.448,0,0,1,1.7-3.686,7.144,7.144,0,0,1,4.564-1.346,5.39,5.39,0,0,1,3.656,1.024,3.477,3.477,0,0,1,1.141,2.72,4.617,4.617,0,0,1-1.609,3.6,6.87,6.87,0,0,1-4.709,1.433Q2170.917,395.4,2170.916,391.652Zm-47.776,2.987c-.074,0-.107-.063-.117-.192-.017-.181-.326-4.445.457-5.7a2.783,2.783,0,1,1,4.738,2.921l-.018.028c-.783,1.25-4.753,2.842-4.92,2.908a.408.408,0,0,1-.133.032Zm8.042-10.857a9.367,9.367,0,0,1-1.511-.306,3.774,3.774,0,0,1-1.2-.552,1.024,1.024,0,0,1-.492-.866,1.87,1.87,0,0,1,.079-.477,1.985,1.985,0,0,1,.237-.542,1.882,1.882,0,0,1,.388-.445.872.872,0,0,1,.557-.186.938.938,0,0,1,.477.13c.143.087.315.18.51.274a5,5,0,0,0,.727.267,4.026,4.026,0,0,0,1.145.13,3.249,3.249,0,0,0,.969-.13.55.55,0,0,0,.421-.584.78.78,0,0,0-.348-.664,4.584,4.584,0,0,0-.875-.463l-1.154-.468a4.689,4.689,0,0,1-1.145-.664,3.181,3.181,0,0,1-.881-1.049,3.461,3.461,0,0,1-.348-1.656,3.682,3.682,0,0,1,.445-1.877,3.734,3.734,0,0,1,1.149-1.247,4.711,4.711,0,0,1,1.594-.685,7.968,7.968,0,0,1,1.78-.2,4.148,4.148,0,0,1,2.707.729,2.3,2.3,0,0,1,.871,1.851,1.784,1.784,0,0,1-.6,1.452,2.624,2.624,0,0,1-1.724.5.9.9,0,0,1-.413-.066.265.265,0,0,1-.107-.24,3.988,3.988,0,0,0-.032-.445,1.391,1.391,0,0,0-.153-.471.986.986,0,0,0-.371-.383,1.345,1.345,0,0,0-.7-.151,1.516,1.516,0,0,0-.973.29.894.894,0,0,0-.37.727.852.852,0,0,0,.379.722,4.729,4.729,0,0,0,.954.509c.384.164.8.326,1.247.493a5.017,5.017,0,0,1,1.245.664,3.488,3.488,0,0,1,.954,1.028,2.984,2.984,0,0,1,.381,1.594,3.3,3.3,0,0,1-1.108,2.558,4.814,4.814,0,0,1-3.319,1A11.753,11.753,0,0,1,2131.182,383.782Zm-12.033-.326a3.93,3.93,0,0,1-1.572-1.162,4.317,4.317,0,0,1-.824-1.719,8.857,8.857,0,0,1-.241-2.119,10.518,10.518,0,0,1,.315-2.549,5.945,5.945,0,0,1,1.075-2.22,5.407,5.407,0,0,1,2.007-1.571,7.194,7.194,0,0,1,3.108-.6,4.992,4.992,0,0,1,3.912,1.334,5.428,5.428,0,0,1,1.186,3.741,11.775,11.775,0,0,1-.1,1.483,8.1,8.1,0,0,1-.366,1.615,7.758,7.758,0,0,1-.737,1.563,5.361,5.361,0,0,1-1.181,1.343,5.593,5.593,0,0,1-1.725.932,7.358,7.358,0,0,1-2.376.347,6.353,6.353,0,0,1-2.479-.423Zm2.187-8.625a2.706,2.706,0,0,0-.738,1.014,4.75,4.75,0,0,0-.325,1.261,9.9,9.9,0,0,0-.073,1.115,3.855,3.855,0,0,0,.454,2.1,1.481,1.481,0,0,0,1.3.671,1.721,1.721,0,0,0,1.247-.477,3.349,3.349,0,0,0,.755-1.149,5.768,5.768,0,0,0,.371-1.411,9.835,9.835,0,0,0,.1-1.236,3.129,3.129,0,0,0-.4-1.7,1.523,1.523,0,0,0-1.381-.622,1.927,1.927,0,0,0-1.311.431Zm-10.612,8.83a2.523,2.523,0,0,1-1.733-.477,1.765,1.765,0,0,1-.524-1.369c0-.286.024-.781.066-1.482s.1-1.5.176-2.4.144-1.843.218-2.841.144-1.937.218-2.816.13-1.66.172-2.321.065-1.122.065-1.369c0-.217.116-.324.348-.324h1.191a2.358,2.358,0,0,1,1.682.468,1.863,1.863,0,0,1,.464,1.377,1.228,1.228,0,0,1-.01.194,1.286,1.286,0,0,0-.009.194l-.718,10.124h3.9a.434.434,0,0,1,.241.075.266.266,0,0,1,.107.231l-.083,1.279a1.87,1.87,0,0,1-.361,1.051,1.6,1.6,0,0,1-1.289.4Z" transform="translate(-1927.522 53.57)" fill="#fff"/>
      <text id="Pide_tu_taxi" data-name="Pide tu taxi" transform="translate(1723.545 472)" fill="#fff" font-size="57" font-family="EuclidCircularA-Bold, Euclid Circular A" font-weight="700"><tspan x="0" y="0">Pide tu taxi</tspan></text>
      <text id="_634-2222" data-name="634-2222" transform="translate(1078.545 486)" fill="#e80000" font-size="97" font-family="EuclidCircularA-Bold, Euclid Circular A" font-weight="700" letter-spacing="0.3em"><tspan x="-320.052" y="0">634</tspan><tspan y="0" fill="#01579b">-</tspan><tspan y="0">2222</tspan></text>
    </g>
  </g>
</svg>
